<svg width="167" height="33" viewBox="0 0 167 33" fill="none" xmlns="http://www.w3.org/2000/svg">
    <path fill-rule="evenodd" clip-rule="evenodd"
          d="M103.921 15.709V27.1309H101.122V15.709H98.5581V13.2591H101.126V10.9211C101.126 7.8347 103.174 6.16113 105.683 6.16113C106.606 6.16113 107.182 6.36296 107.303 6.45578V8.87332C107.156 8.81586 106.813 8.69948 106.125 8.69948C105.173 8.69948 103.932 9.1606 103.932 11.0655V13.2591H107.278V15.7105L103.921 15.709ZM31.1599 27.1309V6.24806H33.8721V27.1309H31.1599ZM17.2971 6.68116C21.1923 6.68116 23.4699 8.98822 23.4699 12.219C23.4699 14.4111 22.2015 15.9683 20.413 16.6386C22.7495 17.2161 24.1049 19.2904 24.1049 21.5709C24.1049 24.8017 21.537 27.1382 17.7877 27.1382H10.6353V6.68116H17.2971ZM16.9804 15.6162C19.2595 15.6162 20.6148 14.2609 20.6148 12.3575C20.6148 10.4246 19.202 9.15469 16.8655 9.15469H13.4609V15.6162H16.9804ZM17.384 24.65C19.6631 24.65 21.2144 23.38 21.2144 21.3912C21.2144 19.4289 19.974 18.0441 17.4945 18.0441H13.4609V24.65H17.384ZM47.136 27.5669C51.2845 27.5669 54.231 24.423 54.231 20.1831C54.231 15.9683 51.2845 12.8289 47.136 12.8289C42.9874 12.8289 40.041 15.9727 40.041 20.1831C40.041 24.4186 42.9874 27.5669 47.136 27.5669ZM47.136 15.2508C49.4445 15.2508 51.4628 16.9818 51.4628 20.1831C51.4628 23.4095 49.443 25.1449 47.136 25.1449C44.8289 25.1449 42.8106 23.4139 42.8106 20.1831C42.8106 16.9774 44.8275 15.2508 47.136 15.2508ZM63.1701 20.1831C63.1701 23.3564 65.1604 25.058 67.41 25.058C70.0058 25.058 70.9575 23.299 71.2742 22.2029L73.6682 23.2342C73.0052 25.223 71.0164 27.5595 67.41 27.5595C63.3719 27.5625 60.4019 24.3906 60.4019 20.1831C60.4019 15.8578 63.4308 12.8289 67.382 12.8289C71.0738 12.8289 72.9802 15.1359 73.5547 17.2485L71.1033 18.2797C70.7571 16.9244 69.748 15.3333 67.382 15.3333C65.1898 15.3333 63.1701 16.9494 63.1701 20.1831ZM92.3843 27.1309L86.3559 19.1122L92.2694 13.2591H88.52L82.5196 19.4009V6.24806H79.8369V27.1309H82.5196V22.9484L84.4525 21.0156L88.9811 27.1309H92.3843ZM120.56 27.5669C124.709 27.5669 127.655 24.423 127.655 20.1831C127.655 15.9683 124.709 12.8289 120.56 12.8289C116.411 12.8289 113.465 15.9727 113.465 20.1831C113.465 24.4186 116.411 27.5669 120.56 27.5669ZM120.56 15.2508C122.867 15.2508 124.887 16.9818 124.887 20.1831C124.887 23.4095 122.87 25.1449 120.563 25.1449C118.256 25.1449 116.236 23.4139 116.236 20.1831C116.236 16.9774 118.253 15.2508 120.56 15.2508ZM133.826 27.1309V6.24806H136.537V27.1309H133.826ZM145.393 6.46619C145.171 6.32112 144.91 6.24523 144.645 6.24814C144.29 6.25203 143.951 6.3964 143.703 6.64963C143.454 6.90285 143.316 7.24427 143.319 7.59907C143.321 7.8644 143.402 8.12315 143.551 8.34256C143.7 8.56196 143.911 8.73216 144.157 8.8316C144.403 8.93104 144.673 8.95524 144.933 8.90115C145.193 8.84706 145.431 8.7171 145.616 8.52774C145.802 8.33837 145.928 8.09811 145.977 7.83738C146.026 7.57666 145.997 7.30718 145.893 7.06309C145.789 6.819 145.615 6.61126 145.393 6.46619ZM145.995 13.2573H143.313V27.1306H145.995V13.2573ZM159.866 27.5669C164.015 27.5669 166.961 24.423 166.961 20.1831C166.961 15.9683 164.016 12.8289 159.868 12.8289C155.719 12.8289 152.773 15.9727 152.773 20.1831C152.773 24.4186 155.718 27.5669 159.866 27.5669ZM159.866 15.2508C162.175 15.2508 164.193 16.9818 164.193 20.1831C164.193 23.4095 162.173 25.1449 159.866 25.1449C157.559 25.1449 155.541 23.4139 155.541 20.1831C155.541 16.9818 157.558 15.2508 159.866 15.2508Z"
          fill="#12161c"/>
    <path opacity="0.7"
          d="M30.9375 33H2.0625C1.51549 33 0.990886 32.7827 0.604092 32.3959C0.217298 32.0091 0 31.4845 0 30.9375L0 2.0625C0 1.51549 0.217298 0.990886 0.604092 0.604092C0.990886 0.217298 1.51549 0 2.0625 0L30.9375 0C31.4845 0 32.0091 0.217298 32.3959 0.604092C32.7827 0.990886 33 1.51549 33 2.0625V3.35893H32.2634V2.0625C32.2634 1.71085 32.1237 1.37361 31.875 1.12495C31.6264 0.876299 31.2892 0.736607 30.9375 0.736607H2.0625C1.71085 0.736607 1.37361 0.876299 1.12495 1.12495C0.876299 1.37361 0.736607 1.71085 0.736607 2.0625V30.9375C0.736607 31.2892 0.876299 31.6264 1.12495 31.875C1.37361 32.1237 1.71085 32.2634 2.0625 32.2634H30.9375C31.2892 32.2634 31.6264 32.1237 31.875 31.875C32.1237 31.6264 32.2634 31.2892 32.2634 30.9375V30.2186H33V30.9375C33 31.4845 32.7827 32.0091 32.3959 32.3959C32.0091 32.7827 31.4845 33 30.9375 33Z"
          fill="#12161c"/>
</svg>
