<svg id="Layer_1" data-name="Layer 1" xmlns="http://www.w3.org/2000/svg" xmlns:xlink="http://www.w3.org/1999/xlink" viewBox="0 0 1515.95 484.3"><defs><clipPath id="clip-path"><path d="M45.48,276.27l23.4,32,141.87-32s37.6-3.37,39.2,41.43-34.4,107.8-34.4,107.8-84.6,54-120.8,38.6-71.2-49.4-71.2-49.4-32.4-37.4-21.2-69.6,16.8-55.8,24.6-60.8,15.8-11.4,15.8-11.4Z" style="fill:#772D23"/></clipPath></defs><circle cx="126.15" cy="138.5" r="83.4" style="fill:none;stroke:#772D23;stroke-miterlimit:10;stroke-width:37px"/><circle cx="227.45" cy="43.1" r="24.1" style="fill:#772D23"/><polygon points="45.48 276.27 68.88 308.3 206.95 257.45 126.15 227.3 45.48 255.1 45.48 276.27" style="fill:none"/><g style="clip-path:url(#clip-path)"><circle cx="126.15" cy="338.5" r="83.4" style="fill:none;stroke:#772D23;stroke-miterlimit:10;stroke-width:37px"/></g><rect x="126.22" y="276.94" width="81.59" height="32.16" style="fill:#772D23"/><path d="M478,338.8c-42,0-71.7-23.4-72.3-57.9h29.1c1.8,17.4,14.1,34.8,43.2,34.8,26.4,0,42-15,42-34.8,0-56.4-113.1-20.4-113.1-98.1,0-34.5,27.9-57.9,69.3-57.9,39.9,0,66,21.9,69.3,53.7h-30c-1.8-14.1-15-30-40.5-30.3-22.5-.6-40.2,11.1-40.2,33.6,0,54,112.8,20.4,112.8,97.8C547.62,309.4,523.32,338.8,478,338.8Z" style="fill:#772D23"/><path d="M568.32,172.3h27.9l37.8,138,40.8-138h27.9l39.9,138.3,37.2-138.3h27l-51.3,164.4h-28.2l-39.6-130.5-39.6,130.5h-28.2Z" style="fill:#772D23"/><path d="M901.61,169.6c30.6,0,51.6,15.6,61.2,32.7v-30h27.61V336.7H962.81V306.1c-9.9,17.7-31.2,33.3-61.5,33.3-43.8,0-77.7-34.5-77.7-85.5C823.61,202.6,857.51,169.6,901.61,169.6Zm5.4,23.7c-30,0-55.5,21.9-55.5,60.6S877,315.4,907,315.4s55.8-22.5,55.8-61.2C962.81,216.1,937,193.3,907,193.3Z" style="fill:#772D23"/><path d="M1125.41,169.6c44.1,0,78,33,78,84.3,0,51-33.9,85.5-78,85.5-30,0-51.3-16.2-61.5-33V414.7h-27.3V172.3h27.3v30.3C1073.81,185.2,1095.41,169.6,1125.41,169.6Zm-5.7,23.7c-29.7,0-55.8,22.8-55.8,60.9,0,38.7,26.1,61.2,55.8,61.2,30.3,0,55.8-22.8,55.8-61.5S1150,193.3,1119.71,193.3Z" style="fill:#772D23"/><path d="M1328.21,169.6c44.1,0,78,33,78,84.3,0,51-33.9,85.5-78,85.5-30,0-51.3-16.2-61.5-33V414.7h-27.3V172.3h27.3v30.3C1276.61,185.2,1298.21,169.6,1328.21,169.6Zm-5.7,23.7c-29.7,0-55.8,22.8-55.8,60.9,0,38.7,26.1,61.2,55.8,61.2,30.3,0,55.8-22.8,55.8-61.5S1352.81,193.3,1322.51,193.3Z" style="fill:#772D23"/></svg>
